# xmcd
#
# Track frame offsets: 
#        150
#        14584
#        33300
#        51039
#        66368
#        84090
#        109595
#        125851
#        140034
#        155088
#
# Disc length: 2323 seconds
#
# Revision: 1
# Processed by: cddbd v1.5.2PL0 Copyright (c) Steve Scherf et al.
# Submitted via: ExactAudioCopy v0.99pb5
#
DISCID=8a09110a
DTITLE=Sera Cahoone - Only As The Day Is Long
DYEAR=2008
DGENRE=Acoustic
TTITLE0=You Might As Well
TTITLE1=Baker Lake
TTITLE2=Only As The Day Is Long
TTITLE3=Runnin' Your Way
TTITLE4=Shitty Hotel
TTITLE5=You're Not Broken
TTITLE6=The Colder The Air
TTITLE7=Tryin'
TTITLE8=Happy When I'm Gone
TTITLE9=Seven Hours Later
EXTD=
EXTT0=
EXTT1=
EXTT2=
EXTT3=
EXTT4=
EXTT5=
EXTT6=
EXTT7=
EXTT8=
EXTT9=
PLAYORDER=
